<svg xmlns="http://www.w3.org/2000/svg" xmlns:xlink="http://www.w3.org/1999/xlink"><symbol viewBox="0 0 0 0" id="icon-icons-all" xmlns="http://www.w3.org/2000/svg"/><symbol viewBox="0 0 25 25" id="icon-instagram" xmlns="http://www.w3.org/2000/svg"><path d="M23.816.935A3.054 3.054 0 0021.576 0H3.174a3.056 3.056 0 00-2.24.935A3.054 3.054 0 000 3.175v18.4a3.055 3.055 0 00.935 2.24 3.057 3.057 0 002.24.935h18.4a3.192 3.192 0 003.175-3.175v-18.4a3.055 3.055 0 00-.934-2.24zM8.886 8.919a4.862 4.862 0 013.506-1.41 4.882 4.882 0 013.52 1.41 4.711 4.711 0 010 6.816 4.881 4.881 0 01-3.52 1.41 4.865 4.865 0 01-3.505-1.41 4.71 4.71 0 010-6.816zm13.06 11.998a.94.94 0 01-.29.7.96.96 0 01-.692.281H3.739a.964.964 0 01-.983-.983V10.474h2.271a6.936 6.936 0 00-.323 2.11 7.076 7.076 0 002.257 5.279 7.528 7.528 0 005.43 2.183 7.748 7.748 0 003.868-1 7.52 7.52 0 002.804-2.715 7.139 7.139 0 001.031-3.746 6.939 6.939 0 00-.323-2.11h2.176v10.442zm0-14.39a1.1 1.1 0 01-1.112 1.113h-2.803A1.1 1.1 0 0116.92 6.53V3.868a1.08 1.08 0 01.323-.782 1.06 1.06 0 01.789-.33h2.803a1.06 1.06 0 01.79.33 1.08 1.08 0 01.323.782v2.658l-.001.002z"/></symbol><symbol viewBox="0 0 30 24" id="icon-twitter" xmlns="http://www.w3.org/2000/svg"><path d="M30 2.85c-1.126.486-2.32.802-3.54.938A5.898 5.898 0 0029.162.45a12.182 12.182 0 01-3.904 1.463A6.16 6.16 0 0023.261.518a6.245 6.245 0 00-4.802-.076 6.171 6.171 0 00-2.043 1.33 5.834 5.834 0 00-1.35 1.959 5.759 5.759 0 00-.45 2.325c.003.466.055.93.156 1.386A17.342 17.342 0 017.696 5.58a17.385 17.385 0 01-5.609-4.472 5.864 5.864 0 00-.837 3.056 5.829 5.829 0 00.742 2.89 6.085 6.085 0 002 2.155 6.17 6.17 0 01-2.78-.77v.075a5.798 5.798 0 001.399 3.852 6.065 6.065 0 003.531 2.09 6.458 6.458 0 01-1.618.207 7.951 7.951 0 01-1.156-.095 6.071 6.071 0 002.192 3.006 6.226 6.226 0 003.557 1.194 12.159 12.159 0 01-7.634 2.587c-.495.003-.99-.022-1.483-.074A17.27 17.27 0 009.44 24c2.094.014 4.174-.331 6.147-1.021a15.698 15.698 0 004.912-2.738 18.398 18.398 0 003.513-3.947 17.465 17.465 0 002.198-4.659 16.961 16.961 0 00.706-5.654A12.77 12.77 0 0030 2.851z"/></symbol></svg>